# xmcd CD database file
# Copyright (C) 1993-1998 Ti Kan
# 
# Track frame offsets:
#     183
#     15988
#     46188
#     65670
#     83830
#     106178
#     134245
#     150980
#     172110
#     193050
#     209220
#     226150
#     239228
#     252438
#     297805
# 
# Disc length: 4110 seconds
# 
# Revision: 1
# Processed by: cddbd v1.4b41PL1 Copyright (c) Steve Scherf et al.
# Submitted via: DiscPlay 4.0.4
# 
DISCID=db100c0f
DTITLE=Freddy Cole - I'm Not Brother I'm Me
DYEAR=1900
DGENRE=
TTITLE0=Clown Town
TTITLE1=Where Did Everyone Go? - How Did She Look
TTITLE2=Home Fried Potatoes
TTITLE3=Overjoyed
TTITLE4=I Just Found Out About Love
TTITLE5=Like A Quiet Storm
TTITLE6=Brandy
TTITLE7=Sunday, Monday, Always
TTITLE8=More Than Likely
TTITLE9=To Whom It May Concern
TTITLE10=Funny (Not Much)
TTITLE11=The Best Man
TTITLE12=He Was The King
TTITLE13=Nat Cole Medley
TTITLE14=I'm Not My Brother, I'm Me
EXTD=
EXTT0=
EXTT1=
EXTT2=
EXTT3=
EXTT4=
EXTT5=
EXTT6=
EXTT7=
EXTT8=
EXTT9=
EXTT10=
EXTT11=
EXTT12=
EXTT13=
EXTT14=
PLAYORDER=
